# xmcd CD database file
#
# Track frame offsets:
#	150
#	14731
#	27632
#	42543
#	58029
#	69985
#	91560
#	104656
#	125763
#	134435
#	165435
#
# Disc length: 2281 seconds
#
# Revision: 0
# Processed by: cddbd v1.5.2PL0 Copyright (c) Steve Scherf et al.
# Submitted via: CDex 2.03
#
DISCID=9c08e70b
DTITLE=Rotem Sivan Trio - Antidote
DYEAR=2016
DGENRE=Jazz
TTITLE0=Shahar
TTITLE1=Antidote
TTITLE2=Over The Rainbow (feat. Gracie Terzian)
TTITLE3=Reconstruction
TTITLE4=Aloof
TTITLE5=Sun Song
TTITLE6=Rustic Heart
TTITLE7=Make You Feel My Love
TTITLE8=Knives
TTITLE9=For Emotional Use Only
TTITLE10=Bruchim Ha Nimtzaim
EXTD=YEAR: 2016
EXTT0=
EXTT1=
EXTT2=
EXTT3=
EXTT4=
EXTT5=
EXTT6=
EXTT7=
EXTT8=
EXTT9=
EXTT10=
PLAYORDER=
